<?xml version="1.0" encoding="UTF-8" standalone="no"?>
<svg
   xmlns:dc="http://purl.org/dc/elements/1.1/"
   xmlns:cc="http://creativecommons.org/ns#"
   xmlns:rdf="http://www.w3.org/1999/02/22-rdf-syntax-ns#"
   xmlns:svg="http://www.w3.org/2000/svg"
   xmlns="http://www.w3.org/2000/svg"
   id="svg28"
   xml:space="preserve"
   viewBox="0 0 148 70"
   height="70"
   width="148"
   version="1.1"><metadata
     id="metadata32"><rdf:RDF><cc:Work
         rdf:about=""><dc:format>image/svg+xml</dc:format><dc:type
           rdf:resource="http://purl.org/dc/dcmitype/StillImage" /></cc:Work></rdf:RDF></metadata><desc
     id="desc2">Created with Fabric.js 1.7.22</desc><defs
     id="defs4" /><g
     id="g20"
     transform="translate(39.77,16.2)"><g
       id="text18"
       style="font-weight:normal;font-size:27px;font-family:Lato;white-space:pre;opacity:1;fill:#4046b3;fill-rule:nonzero;stroke:none;stroke-width:1;stroke-linecap:butt;stroke-linejoin:miter;stroke-miterlimit:10;stroke-dasharray:none"
       aria-label="sckool"><path
         id="path34"
         style="white-space:pre;opacity:1;fill:#fff;stroke:none;stroke-width:0;stroke-linecap:butt;stroke-linejoin:miter;stroke-miterlimit:4;stroke-dasharray:none"
         d="m -27.851501,-2.921 q -0.162,0.297 -0.4995,0.297 -0.2025,0 -0.459,-0.1485 -0.2565,-0.1485 -0.6345,-0.324 -0.3645,-0.189 -0.8775,-0.3375 -0.513,-0.162 -1.215,-0.162 -0.6075,0 -1.0935,0.162 -0.486,0.1485 -0.837,0.4185 -0.3375,0.27 -0.5265,0.6345 -0.1755,0.351 -0.1755,0.7695 0,0.5265 0.297,0.8775 0.3105,0.351 0.81,0.6075 0.4995,0.2565 1.134,0.459 0.6345,0.189 1.296,0.4185 0.675,0.216 1.3095,0.486 0.6345,0.27 1.134,0.675 0.4995,0.405 0.7965,0.999 0.3105,0.5805 0.3105,1.404 0,0.945 -0.3375,1.755 -0.3375,0.7965 -0.999,1.3905 -0.6615,0.5805 -1.62,0.918 -0.9585,0.3375 -2.214,0.3375 -1.431,0 -2.592,-0.459 -1.161,-0.4725 -1.971,-1.2015 l 0.567,-0.918 q 0.108,-0.1755 0.2565,-0.27 0.1485,-0.0945 0.378,-0.0945 0.243,0 0.513,0.189 0.27,0.189 0.648,0.4185 0.3915,0.2295 0.945,0.4185 0.5535,0.189 1.377,0.189 0.702,0 1.2285,-0.1755 0.5265,-0.189 0.8775,-0.4995 0.351,-0.3105 0.513,-0.7155 0.1755,-0.405 0.1755,-0.864 0,-0.567 -0.3105,-0.9315 -0.297,-0.378 -0.7965,-0.6345 -0.4995,-0.27 -1.1475,-0.459 -0.6345,-0.2025 -1.3095,-0.4185 -0.6615,-0.216 -1.3095,-0.486 -0.6345,-0.2835 -1.134,-0.702 -0.4995,-0.4185 -0.81,-1.026 -0.297,-0.621 -0.297,-1.4985 0,-0.783 0.324,-1.4985 0.324,-0.729 0.945,-1.269 0.621,-0.5535 1.5255,-0.8775 0.9045,-0.324 2.0655,-0.324 1.35,0 2.4165,0.432 1.08,0.4185 1.863,1.161 z" /><path
         id="path36"
         style="white-space:pre;opacity:1;fill:#fff;stroke:none;stroke-width:0;stroke-linecap:butt;stroke-linejoin:miter;stroke-miterlimit:4;stroke-dasharray:none"
         d="m -14.579,-2.7455 q -0.108,0.1485 -0.216,0.2295 -0.108,0.081 -0.297,0.081 -0.2025,0 -0.4455,-0.162 -0.243,-0.1755 -0.6075,-0.378 -0.351,-0.2025 -0.8775,-0.3645 -0.513,-0.1755 -1.269,-0.1755 -1.0125,0 -1.782,0.3645 -0.7695,0.351 -1.296,1.026 -0.513,0.675 -0.783,1.6335 -0.2565,0.9585 -0.2565,2.1465 0,1.242 0.2835,2.214 0.2835,0.9585 0.7965,1.62 0.5265,0.648 1.2555,0.999 0.7425,0.3375 1.6605,0.3375 0.8775,0 1.4445,-0.2025 0.567,-0.216 0.9315,-0.4725 0.378,-0.2565 0.621,-0.459 0.2565,-0.216 0.4995,-0.216 0.297,0 0.459,0.2295 l 0.675,0.8775 q -0.4455,0.5535 -1.0125,0.945 -0.567,0.3915 -1.2285,0.6615 -0.648,0.2565 -1.3635,0.378 -0.7155,0.1215 -1.458,0.1215 -1.2825,0 -2.3895,-0.4725 -1.0935,-0.4725 -1.9035,-1.3635 -0.81,-0.9045 -1.269,-2.214 -0.459,-1.3095 -0.459,-2.9835 0,-1.5255 0.4185,-2.8215 0.432,-1.296 1.242,-2.2275 0.8235,-0.945 2.0115,-1.4715 1.2015,-0.5265 2.754,-0.5265 1.4445,0 2.538,0.4725 1.107,0.459 1.9575,1.3095 z" /><path
         id="path38"
         style="white-space:pre;opacity:1;fill:#fff;stroke:none;stroke-width:0;stroke-linecap:butt;stroke-linejoin:miter;stroke-miterlimit:4;stroke-dasharray:none"
         d="M -9.0600001,-11.3855 V 0.319 h 0.621 q 0.27,0 0.4455,-0.0675 0.189,-0.081 0.3915,-0.3105 l 4.32,-4.6305 q 0.189,-0.2295 0.3915,-0.351 0.216,-0.135 0.567,-0.135 h 2.17349999 L -5.1855001,0.184 q -0.3645,0.459 -0.783,0.7155 0.243,0.162 0.432,0.378 0.2025,0.2025 0.378,0.4725 L 0.18749989,8.5 H -1.9590001 q -0.3105,0 -0.54,-0.0945 -0.216,-0.108 -0.378,-0.378 l -4.4955,-5.6025 q -0.2025,-0.2835 -0.405,-0.3645 -0.189,-0.0945 -0.594,-0.0945 h -0.6885 V 8.5 H -11.4765 v -19.8855 z" /><path
         id="path40"
         style="white-space:pre;opacity:1;fill:#fff;stroke:none;stroke-width:0;stroke-linecap:butt;stroke-linejoin:miter;stroke-miterlimit:4;stroke-dasharray:none"
         d="m 8.438,-5.3915 q 1.4985,0 2.7,0.4995 1.2015,0.4995 2.052,1.4175 0.8505,0.918 1.296,2.2275 0.459,1.296 0.459,2.9025 0,1.62 -0.459,2.916 -0.4455,1.296 -1.296,2.214 -0.8505,0.918 -2.052,1.4175 -1.2015,0.486 -2.7,0.486 -1.512,0 -2.727,-0.486 Q 4.5095,7.7035 3.659,6.7855 2.8085,5.8675 2.3495,4.5715 1.904,3.2755 1.904,1.6555 1.904,0.049 2.3495,-1.247 2.8085,-2.5565 3.659,-3.4745 4.5095,-4.3925 5.711,-4.892 6.926,-5.3915 8.438,-5.3915 Z m 0,12.204 q 2.025,0 3.024,-1.35 0.999,-1.3635 0.999,-3.7935 0,-2.4435 -0.999,-3.807 -0.999,-1.3635 -3.024,-1.3635 -1.026,0 -1.7955,0.351 -0.756,0.351 -1.269,1.0125 -0.4995,0.6615 -0.756,1.6335 -0.243,0.9585 -0.243,2.1735 0,2.43 0.999,3.7935 1.0125,1.35 3.0645,1.35 z" /><path
         id="path42"
         style="white-space:pre;opacity:1;fill:#fff;stroke:none;stroke-width:0;stroke-linecap:butt;stroke-linejoin:miter;stroke-miterlimit:4;stroke-dasharray:none"
         d="m 23.448,-5.3915 q 1.4985,0 2.7,0.4995 1.2015,0.4995 2.052,1.4175 0.8505,0.918 1.296,2.2275 0.459,1.296 0.459,2.9025 0,1.62 -0.459,2.916 -0.4455,1.296 -1.296,2.214 -0.8505,0.918 -2.052,1.4175 -1.2015,0.486 -2.7,0.486 -1.512,0 -2.727,-0.486 -1.2015,-0.4995 -2.052,-1.4175 -0.8505,-0.918 -1.3095,-2.214 -0.4455,-1.296 -0.4455,-2.916 0,-1.6065 0.4455,-2.9025 0.459,-1.3095 1.3095,-2.2275 0.8505,-0.918 2.052,-1.4175 1.215,-0.4995 2.727,-0.4995 z m 0,12.204 q 2.025,0 3.024,-1.35 0.999,-1.3635 0.999,-3.7935 0,-2.4435 -0.999,-3.807 -0.999,-1.3635 -3.024,-1.3635 -1.026,0 -1.7955,0.351 -0.756,0.351 -1.269,1.0125 -0.4995,0.6615 -0.756,1.6335 -0.243,0.9585 -0.243,2.1735 0,2.43 0.999,3.7935 1.0125,1.35 3.0645,1.35 z" /><path
         id="path44"
         style="white-space:pre;opacity:1;fill:#fff;stroke:none;stroke-width:0;stroke-linecap:butt;stroke-linejoin:miter;stroke-miterlimit:4;stroke-dasharray:none"
         d="M 35.187499,-11.3855 V 8.5 h -2.403 v -19.8855 z" /></g></g><g
     id="g26"
     transform="translate(45.8,1.8)"
     style="opacity:1;fill:#e61313;fill-rule:nonzero;stroke:none;stroke-width:1;stroke-linecap:butt;stroke-linejoin:miter;stroke-miterlimit:10;stroke-dasharray:none"><path
       id="polygon22"
       d="M 55.61,19.63 14.58,60.68 8.19,54.28 55.58,6.89 55.66,6.96 55.9,6.88 75.28,26.08 V 12.47 h 8 v 22.35 l 19.64,19.46 -6.31,6.4 z"
       style="opacity:1;fill:#e61313;fill-rule:nonzero;stroke:none;stroke-width:1;stroke-linecap:butt;stroke-linejoin:miter;stroke-miterlimit:10;stroke-dasharray:none"
       transform="matrix(1.0552234,0,0,1.0552234,-8.6412246,-7.2641577)" /><path
       id="rect24"
       d="m 47.279999,40.470001 h 17 v 29 h -17 z"
       style="opacity:1;fill:#e61313;fill-rule:nonzero;stroke:none;stroke-width:1;stroke-linecap:butt;stroke-linejoin:miter;stroke-miterlimit:10;stroke-dasharray:none"
       transform="matrix(1.0552234,0,0,1.0552234,-8.6412246,-7.2641577)" /></g></svg>